<svg width="61" height="61" viewBox="0 0 61 61" fill="#31c4be" xmlns="http://www.w3.org/2000/svg">
<path d="M48.7959 60.167C48.6479 59.885 48.5009 59.603 48.3509 59.328C45.3659 54.435 41.1089 50.814 37.3689 45.801C34.9419 42.101 31.1229 38.918 28.0599 35.855C34.7329 43.702 42.5859 51.11 47.3579 60.289C45.9019 60.335 44.4599 60.091 43.4789 59.111C41.4139 56.454 39.2919 53.917 37.1229 51.464C37.4439 51.143 38.0709 50.516 38.3869 50.2C30.8679 44.59 27.2859 35.917 19.1299 30.943C19.1939 31.346 18.7959 31.467 18.5419 31.624C18.5249 31.609 18.5089 31.594 18.4939 31.579C18.5099 31.593 18.5249 31.609 18.5419 31.624C18.3179 31.761 18.2049 31.927 18.6129 32.336C18.2049 31.928 18.3169 31.761 18.5419 31.624C25.3099 37.772 31.0419 44.117 36.8739 51.184C27.4549 40.575 17.1809 31.54 6.91589 21.275C6.47889 20.838 5.60289 19.962 5.16589 19.525C4.36989 16.82 2.93689 14.75 1.18689 13.001C3.21489 11.847 4.64589 6.91398 7.51189 11.052C7.82989 10.734 8.4669 10.098 8.7849 9.77998C6.8739 4.68698 10.0159 -1.08101 14.7909 1.14799C20.0019 3.81399 23.9809 10.338 29.4299 14.515C33.2499 17.699 37.0699 20.882 39.9329 25.018C43.7919 30.787 49.3629 35.72 52.9029 41.806C54.3359 43.876 58.3539 45.985 58.2759 47.815C58.4469 48.901 57.7949 49.603 56.9429 50.263C54.1779 47.273 51.3439 44.37 48.6459 41.394C45.5229 37.558 42.4389 33.682 39.5939 29.571C42.1219 33.845 45.2759 37.677 48.6459 41.394C51.1859 44.514 53.7539 47.61 56.2429 50.782C55.4899 51.328 54.7129 51.906 54.2579 52.707C54.2579 52.707 55.1329 53.582 55.5699 54.02C55.7299 57.362 53.0639 59.151 50.5989 59.868C50.0539 59.968 49.4389 60.082 48.7959 60.167Z" fill="#31c4be"/>
<path d="M60.1669 13.2039C59.8849 13.3519 59.6029 13.4989 59.3279 13.6499C54.4349 16.6349 50.8139 20.8919 45.8009 24.6319C42.1009 27.0589 38.9179 30.8779 35.8549 33.9409C43.7019 27.2679 51.1099 19.4149 60.2889 14.6429C60.3349 16.0989 60.0909 17.5409 59.1109 18.5219C56.4539 20.5859 53.9169 22.709 51.4639 24.877C51.1429 24.556 50.5159 23.9289 50.1999 23.6129C44.5899 31.1319 35.9169 34.7139 30.9429 42.8699C31.3459 42.8059 31.4669 43.2039 31.6239 43.4579C31.6089 43.4749 31.5939 43.491 31.5789 43.506C31.5929 43.49 31.6089 43.4749 31.6239 43.4579C31.7609 43.6819 31.9269 43.7949 32.3359 43.3869C31.9279 43.7949 31.7609 43.6829 31.6239 43.4579C37.7719 36.6899 44.1169 30.9579 51.1839 25.1259C40.5749 34.5449 31.5399 44.819 21.2749 55.084C20.8379 55.521 19.9619 56.397 19.5249 56.834C16.8199 57.63 14.7499 59.063 13.0009 60.812C11.8469 58.784 6.91389 57.3529 11.0519 54.4869C10.7339 54.1689 10.0979 53.5329 9.77889 53.2139C4.68589 55.1249 -1.08211 51.9829 1.14689 47.2079C3.81289 41.9969 10.3369 38.0179 14.5139 32.5689C17.6979 28.7489 20.8809 24.9289 25.0169 22.0659C30.7859 18.2069 35.7189 12.6359 41.8049 9.09595C43.8749 7.66295 45.9839 3.64494 47.8139 3.72394C48.8999 3.55194 49.6019 4.20495 50.2619 5.05695C47.2719 7.82195 44.3689 10.6559 41.3929 13.3539C37.5569 16.4769 33.6809 19.5609 29.5699 22.4059C33.8439 19.8779 37.6759 16.7239 41.3929 13.3539C44.5129 10.8139 47.6089 8.24593 50.7809 5.75693C51.3269 6.50993 51.9049 7.28694 52.7059 7.74194C52.7059 7.74194 53.5809 6.86692 54.0189 6.42892C57.3609 6.26892 59.1499 8.93493 59.8669 11.3999C59.9679 11.9459 60.0819 12.5609 60.1669 13.2039Z" fill="#31c4be"/>
</svg>
