<svg width="149" height="149" viewBox="0 0 149 149" fill="none" xmlns="http://www.w3.org/2000/svg">
<path d="M134.666 30.975C126.499 19.789 115.2 11.013 102.384 5.866C99.1939 4.542 95.8789 3.548 92.5409 2.675C89.1849 1.867 85.7819 1.255 82.3489 0.896999C78.9159 0.569999 75.4679 0.394999 72.0219 0.542999C68.5759 0.631999 65.1289 1.007 61.7159 1.588C48.0419 3.893 35.0029 10.18 24.5209 19.537C22.8389 21.237 19.8729 24.095 16.5509 28.361C13.2509 32.624 9.49689 38.247 6.51389 45.249C5.01889 48.74 3.66789 52.544 2.65189 56.618C1.64289 60.692 0.932872 65.018 0.618872 69.492C-0.0231277 78.421 0.937892 88.001 3.84589 97.146C6.71689 106.292 11.4849 114.913 17.4889 122.107C23.4709 129.332 30.6659 135.104 37.9789 139.226C41.6349 141.296 45.3159 142.968 48.8879 144.303C52.4749 145.601 55.9449 146.556 59.1909 147.266C65.7049 148.616 71.2889 148.894 75.3629 148.888C76.3549 148.846 77.3409 148.839 78.3259 148.761C87.2299 148.379 97.0499 145.98 105.594 141.731C114.181 137.546 121.358 131.596 126.212 125.942C130.597 120.669 134.144 114.658 136.74 108.398C135.846 109.7 134.908 110.899 134.021 112.022C133.079 113.111 132.245 114.168 131.35 115.055C135.314 109.563 138.131 103.33 138.652 100.767C139.739 97.343 140.072 95.176 140.124 93.992C140.178 92.807 139.941 92.592 139.525 92.949C139.104 93.305 138.519 94.236 137.826 95.341C137.073 96.428 136.319 97.726 135.444 98.787C134.436 100.407 134.158 99.926 133.776 99.704C133.386 99.472 132.956 99.525 131.455 101.949C133.177 98.255 133.893 96.326 135.074 92.402C134.949 92.246 134.691 92.928 134.373 93.992C133.988 95.034 133.592 96.479 133.071 97.803C132.812 98.465 132.561 99.11 132.336 99.685C132.093 100.252 131.843 100.733 131.648 101.092C131.25 101.808 131.009 102.003 131.055 101.251C132.915 97.808 133.971 93.526 134.909 89.622C134.354 90.211 133.393 93.541 132.228 96.533C131.032 99.516 129.661 102.137 129.414 101.675C129.588 101.167 130.027 100.313 130.582 99.294C131.081 98.252 131.727 97.053 132.235 95.841C133.302 93.434 133.968 91.048 133.561 90.554C133.399 90.36 132.311 94.154 131.602 95.998C133.49 90.206 133.854 85.473 133.655 83.665C133.544 82.752 133.316 82.556 132.958 83.237C132.612 83.918 132.099 85.472 131.25 88.003C132.115 84.436 133.189 79.249 132.995 75.294C132.988 75.298 132.983 75.315 132.977 75.324C132.918 77.29 132.542 80.646 132.253 82.421C132.557 80.229 132.69 78.006 132.746 75.785C132.584 76.133 132.423 76.525 132.262 76.936C132.184 77.758 132.096 78.578 131.97 79.402C131.848 80.226 131.8 81.065 131.66 81.909C131.778 81.192 131.811 80.464 131.879 79.739C131.936 79.013 132.022 78.287 132.028 77.554C131.668 78.634 131.173 79.848 130.77 81.167C129.536 86.2 127.288 90.524 126.389 93.016C122.702 103.151 115.977 112.111 107.395 118.504C98.8269 124.93 88.4619 128.732 77.8719 129.386C77.8559 129.793 79.0359 130.106 77.2629 130.431C74.4519 130.729 71.8749 130.513 69.3839 130.013C68.7569 129.919 68.1369 129.788 67.5149 129.644C66.8929 129.518 66.2669 129.392 65.6329 129.263C64.3759 128.959 63.0719 128.755 61.7009 128.502C61.5229 128.681 61.3399 128.864 61.1579 129.047C56.9729 127.788 52.8549 125.84 48.9579 123.462C45.2039 121.577 41.6909 119.227 38.4679 116.537C35.2439 113.848 32.2939 110.819 29.7549 107.47C29.6879 107.788 29.5739 108.005 29.0129 107.367C26.8169 104.598 24.4579 100.252 22.7199 95.518C22.4069 94.839 22.0919 94.161 21.8389 93.471C21.5219 92.973 21.2559 92.903 21.0919 92.859C20.3719 90.668 19.9499 88.656 19.6059 86.793C16.4469 74.708 17.1809 61.119 22.7309 48.902C25.4749 42.795 29.3239 36.988 34.2569 31.973C39.1739 26.951 45.1219 22.676 51.8599 19.579C53.2489 18.833 54.6969 18.212 56.1439 17.566C57.6159 17.001 59.0889 16.406 60.6029 15.959C63.6149 15.013 66.7019 14.308 69.7829 13.986C74.3469 13.527 79.6269 13.741 84.7159 14.749C89.8179 15.708 94.7159 17.386 98.7559 19.243C98.6709 18.583 99.8899 18.547 101.736 18.917C103.568 19.31 106.021 20.119 108.325 21.094C112.947 22.986 117.085 25.424 116.003 23.025C118.526 25.067 121.467 27.866 123.734 30.28C125.985 32.708 127.627 34.684 128.055 34.681C128.686 34.681 129.43 34.88 130.413 35.382C130.9 35.636 131.452 35.963 132.051 36.4C132.634 36.848 133.278 37.397 133.99 38.067C136.749 40.772 140.639 45.551 143.968 54.382C145.199 57.855 146.02 62.481 146.363 66.517C146.476 67.525 146.531 68.499 146.568 69.412C146.606 70.325 146.675 71.173 146.688 71.938C146.713 73.466 146.763 74.648 146.877 75.293C147.034 76.195 147.198 76.119 147.367 75.555C147.535 74.987 147.67 73.738 147.813 72.546C148.08 70.136 148.164 67.673 148.658 69.727C147.849 55.763 142.876 42.122 134.666 30.975Z" fill="white"/>
</svg>
